<svg width="512" height="433" viewBox="0 0 512 433" fill="none" xmlns="http://www.w3.org/2000/svg">
<rect width="512" height="433" fill="black"/>
<rect width="512" height="433" fill="white"/>
<g clip-path="url(#clip0_0_1)">
<path d="M2.125 366.334V349.995H5.72115V366.334H2.125Z" fill="#808284"/>
<path d="M24.5192 366.334L16.6731 355.877V366.334H13.0769V349.995H16.3461L24.0288 360.125V349.995H27.625V366.334H24.5192Z" fill="#808284"/>
<path d="M46.2596 366.334L38.4134 355.877V366.334H34.8173V349.995H38.25L45.7692 360.125V349.995H49.3653V366.334H46.2596Z" fill="#808284"/>
<path fill-rule="evenodd" clip-rule="evenodd" d="M72.5769 361.432C72.141 362.413 71.5416 363.284 70.7788 364.047C70.016 364.809 69.0897 365.463 68 366.008C67.0192 366.443 65.875 366.661 64.5673 366.661C63.2596 366.661 62.1153 366.443 61.1346 366.008C60.0448 365.463 59.1186 364.864 58.3557 364.21C57.5929 363.448 56.9935 362.522 56.5577 361.432C56.1218 360.452 55.9038 359.363 55.9038 358.165C55.9038 356.966 56.1218 355.877 56.5577 354.897C56.9935 353.916 57.5929 353.045 58.3557 352.282C59.1186 351.411 60.0448 350.757 61.1346 350.322C62.2243 349.886 63.3686 349.668 64.5673 349.668C65.875 349.668 67.0737 349.886 68.1634 350.322C69.1442 350.757 70.016 351.356 70.7788 352.119C71.5416 352.881 72.141 353.807 72.5769 354.897C73.0128 355.877 73.2307 356.966 73.2307 358.165C73.2307 359.363 73.0128 360.452 72.5769 361.432ZM69.4711 358.165C69.4711 357.511 69.3621 356.857 69.1442 356.204C68.9262 355.55 68.5993 355.006 68.1634 354.57C67.7275 354.134 67.1827 353.753 66.5288 353.426C65.9839 353.208 65.3301 353.099 64.5673 353.099C63.8044 353.099 63.1506 353.208 62.6057 353.426C61.9519 353.644 61.407 354.025 60.9711 354.57C60.5352 355.006 60.2083 355.55 59.9903 356.204C59.7724 356.748 59.6634 357.402 59.6634 358.165C59.6634 358.818 59.7724 359.472 59.9903 360.125C60.2083 360.779 60.5897 361.324 61.1346 361.759C61.5705 362.195 62.0609 362.576 62.6057 362.903C63.2596 363.121 63.9134 363.23 64.5673 363.23C65.3301 363.23 65.9839 363.121 66.5288 362.903C67.1827 362.576 67.7275 362.195 68.1634 361.759C68.5993 361.324 68.9262 360.779 69.1442 360.125C69.3621 359.581 69.4711 358.927 69.4711 358.165Z" fill="#808284"/>
<path d="M88.1058 366.498H85L78.4615 349.995H82.3846L86.6346 361.432L90.8846 349.995H94.8077L88.1058 366.498Z" fill="#808284"/>
<path fill-rule="evenodd" clip-rule="evenodd" d="M112.788 366.334L111.317 362.576H104.452L102.817 366.334H99.2212L106.25 349.831H109.519L116.548 366.334H112.788ZM107.885 354.243L105.596 359.472H110.01L107.885 354.243Z" fill="#808284"/>
<path d="M129.788 353.263V366.334H126.192V353.263H121.288V349.995H134.692V353.263H129.788Z" fill="#808284"/>
<path d="M141.067 366.334V349.995H144.663V366.334H141.067Z" fill="#808284"/>
<path fill-rule="evenodd" clip-rule="evenodd" d="M168.038 361.432C167.603 362.413 167.003 363.284 166.24 364.047C165.478 364.809 164.551 365.463 163.462 366.008C162.372 366.443 161.228 366.661 160.029 366.661C158.721 366.661 157.522 366.443 156.433 366.008C155.452 365.463 154.58 364.864 153.817 364.21C153.054 363.448 152.455 362.522 152.019 361.432C151.583 360.452 151.365 359.363 151.365 358.165C151.365 356.966 151.583 355.877 152.019 354.897C152.455 353.916 153.054 353.045 153.817 352.282C154.58 351.411 155.506 350.757 156.596 350.322C157.577 349.886 158.721 349.668 160.029 349.668C161.228 349.668 162.372 349.886 163.462 350.322C164.551 350.757 165.478 351.356 166.24 352.119C167.003 352.881 167.603 353.807 168.038 354.897C168.474 355.877 168.692 356.966 168.692 358.165C168.692 359.363 168.474 360.452 168.038 361.432ZM164.933 358.165C164.933 357.511 164.824 356.857 164.606 356.204C164.279 355.55 163.897 355.006 163.462 354.57C163.026 354.134 162.535 353.753 161.99 353.426C161.337 353.208 160.683 353.099 160.029 353.099C159.266 353.099 158.558 353.208 157.904 353.426C157.359 353.644 156.869 354.025 156.433 354.57C155.997 355.006 155.67 355.55 155.452 356.204C155.234 356.748 155.125 357.402 155.125 358.165C155.125 358.818 155.234 359.472 155.452 360.125C155.67 360.779 155.997 361.324 156.433 361.759C156.869 362.195 157.413 362.576 158.067 362.903C158.612 363.121 159.266 363.23 160.029 363.23C160.683 363.23 161.337 363.121 161.99 362.903C162.644 362.576 163.135 362.195 163.462 361.759C163.897 361.324 164.279 360.779 164.606 360.125C164.824 359.581 164.933 358.927 164.933 358.165Z" fill="#808284"/>
<path d="M186.673 366.334L178.827 355.877V366.334H175.231V349.995H178.5L186.183 360.125V349.995H189.779V366.334H186.673Z" fill="#808284"/>
<path d="M351.279 362.413C341.798 366.008 332.317 367.968 322.673 367.968C312.974 367.968 303.494 366.116 294.231 362.413C284.968 358.709 276.631 353.154 269.221 345.746C266.442 342.805 264.971 339.047 262.683 335.943C259.25 331.041 255.163 326.629 252.875 321.237C249.115 312.25 247.154 302.61 247.154 292.479C247.154 290.845 247.644 289.375 247.644 287.741C248.135 279.244 249.606 271.238 252.875 263.558C256.471 254.898 261.865 247.218 268.24 240.192C268.731 239.702 268.731 239.049 269.221 238.722C276.631 231.315 284.968 225.759 294.231 222.055C303.494 218.461 312.974 216.609 322.673 216.5C326.923 216.5 331.01 217.154 335.26 217.807C340.654 218.624 345.885 220.095 351.279 222.055C360.596 225.814 368.933 231.369 376.288 238.722L421.731 193.298C408 179.572 392.58 169.278 375.471 162.416C365.99 158.658 356.346 156.207 346.702 154.409C342.942 153.756 339.019 153.756 335.26 153.429C331.01 152.939 326.923 152.122 322.837 152.122C305.346 152.122 288.183 155.553 271.346 162.089V0.816956H188.144V211.108C188.144 218.624 186.673 225.814 183.731 232.349C180.788 238.885 176.865 244.604 171.798 249.506C166.894 254.408 161.173 258.329 154.635 260.944C147.933 263.558 141.067 264.865 133.875 264.865C119.163 264.865 106.413 259.473 95.625 248.526C85.3269 237.742 80.0962 224.997 80.0962 210.128L0 209.147V239.212C1.63462 247.055 3.59615 254.735 6.70192 262.088C13.4038 278.754 23.2115 293.623 35.7981 306.695C48.5481 319.276 62.7692 328.917 78.2981 335.943H190.269C191.25 339.211 191.904 342.642 193.212 345.91C200.186 362.903 210.266 378.099 223.452 391.497C237.292 405.223 252.766 415.462 269.875 422.216C286.984 428.97 304.583 432.346 322.673 432.346C331.01 432.346 339.019 431.366 347.029 430.059C356.673 428.425 366.317 425.974 375.635 422.216C392.635 415.517 408 405.223 421.731 391.497L376.288 345.746C368.933 353.099 360.596 358.655 351.279 362.413Z" fill="white"/>
<path d="M0 50.6528V209.147L80.0962 210.128C80.0962 224.997 85.3269 237.742 95.625 248.526C106.413 259.473 119.163 264.865 133.875 264.865C141.067 264.865 147.933 263.558 154.635 260.944C161.173 258.329 166.894 254.408 171.798 249.506C176.865 244.604 180.788 238.885 183.731 232.349C186.673 225.814 188.144 218.624 188.144 211.108V0.816956H49.8558C22.3942 0.816956 0 23.0388 0 50.6528Z" fill="#191C4A"/>
<path d="M35.7981 306.695C23.2115 293.623 13.4038 278.754 6.70192 262.088C3.59615 254.735 1.63462 247.055 0 239.212V335.943H78.2981C62.7692 328.917 48.5481 319.276 35.7981 306.695Z" fill="#191C4A"/>
<path d="M271.346 0.816956V162.089C288.183 155.553 305.346 152.122 322.837 152.122C326.923 152.122 331.01 152.939 335.26 153.429V0.816956H271.346Z" fill="#191C4A"/>
<path d="M369.913 152.122C362.067 152.122 354.548 153.266 347.029 154.409C356.673 156.207 366.317 158.658 375.798 162.416C392.962 169.278 408.327 179.572 422.058 193.298L376.779 238.558C363.212 224.997 344.413 216.5 323.654 216.5C319.949 216.5 316.298 216.772 312.702 217.317C311.503 217.426 310.359 217.644 309.269 217.971C308.833 217.971 308.397 218.025 307.962 218.134C306.49 218.461 305.183 218.788 303.712 219.114C271.837 227.938 248.462 257.186 248.462 291.989C248.462 306.041 252.221 319.113 258.76 330.224C260.83 333.71 263.119 336.977 265.625 340.028C279.356 356.857 300.279 367.641 323.654 367.641C344.25 367.641 362.885 359.308 376.452 345.91C376.561 345.91 376.67 345.855 376.779 345.746L422.058 391.497C408.327 405.223 392.962 415.517 375.962 422.216C366.644 425.974 357.163 428.425 347.356 430.059C354.712 431.203 362.231 432.346 369.913 432.346C447.231 432.346 510 369.602 510 292.152C510 214.866 447.231 152.122 369.913 152.122Z" fill="#39BEC1"/>
</g>
<defs>
<clipPath id="clip0_0_1">
<rect width="510" height="433" fill="white"/>
</clipPath>
</defs>
</svg>
